<?xml version="1.0" standalone="no"?><!DOCTYPE svg PUBLIC "-//W3C//DTD SVG 1.1//EN" "http://www.w3.org/Graphics/SVG/1.1/DTD/svg11.dtd"><svg t="1561622792399" class="icon" viewBox="0 0 1024 1024" version="1.1" xmlns="http://www.w3.org/2000/svg" p-id="673" data-spm-anchor-id="a313x.7781069.0.i1" width="512" height="512" xmlns:xlink="http://www.w3.org/1999/xlink"><defs><style type="text/css"></style></defs><path d="M512 512m-416 0a416 416 0 1 0 832 0 416 416 0 1 0-832 0Z" fill="#222222" p-id="674" data-spm-anchor-id="a313x.7781069.0.i0" class=""></path><path d="M512 960C264.96 960 64 759.04 64 512S264.96 64 512 64s448 200.96 448 448-200.96 448-448 448z m0-832C300.256 128 128 300.256 128 512s172.256 384 384 384 384-172.256 384-384S723.744 128 512 128z" fill="#222222" p-id="675" data-spm-anchor-id="a313x.7781069.0.i2" class=""></path><path d="M392.896 725.056a32 32 0 0 1-32-32v-159.136H250.016a32 32 0 0 1 0-64h142.88a32 32 0 0 1 32 32v107.04l170.944-192.064a32 32 0 0 1 55.936 21.28v172.704l224.928-245.088a32 32 0 1 1 47.136 43.264l-280.512 305.632a32 32 0 0 1-55.584-21.632v-170.784l-170.944 192.064a32.064 32.064 0 0 1-23.904 10.72z" fill="#ffffff" p-id="676" data-spm-anchor-id="a313x.7781069.0.i3" class="selected"></path></svg>
